<?xml version="1.0" encoding="UTF-8" standalone="no"?>
<!DOCTYPE svg PUBLIC "-//W3C//DTD SVG 1.1//EN" "http://www.w3.org/Graphics/SVG/1.1/DTD/svg11.dtd">
<svg width="100%" height="100%" viewBox="0 0 2421 1071" version="1.1" xmlns="http://www.w3.org/2000/svg" xmlns:xlink="http://www.w3.org/1999/xlink" xml:space="preserve" xmlns:serif="http://www.serif.com/" style="fill-rule:evenodd;clip-rule:evenodd;stroke-linejoin:round;stroke-miterlimit:2;">
    <g transform="matrix(4.16667,0,0,4.16667,0,0)">
        <path d="M20.76,239.944C22.306,239.059 23.512,237.815 24.38,236.211C25.248,234.609 25.682,232.771 25.682,230.697C25.682,228.622 25.248,226.784 24.38,225.18C23.512,223.578 22.306,222.343 20.76,221.475C19.213,220.608 17.498,220.173 15.612,220.173C13.689,220.173 11.964,220.608 10.436,221.475C8.909,222.343 7.702,223.578 6.816,225.18C5.929,226.784 5.486,228.622 5.486,230.697C5.486,232.771 5.929,234.609 6.816,236.211C7.702,237.815 8.909,239.059 10.436,239.944C11.964,240.831 13.689,241.274 15.612,241.274C17.498,241.274 19.213,240.831 20.76,239.944ZM31.055,203.712L31.055,245.686L25.851,245.686L25.851,240.935C24.644,242.594 23.117,243.858 21.269,244.725C19.421,245.593 17.384,246.026 15.16,246.026C12.255,246.026 9.653,245.386 7.353,244.103C5.052,242.82 3.252,241.019 1.951,238.7C0.65,236.381 0,233.714 0,230.697C0,227.679 0.65,225.02 1.951,222.72C3.252,220.419 5.052,218.629 7.353,217.346C9.653,216.063 12.255,215.423 15.16,215.423C17.309,215.423 19.289,215.827 21.099,216.638C22.91,217.45 24.418,218.646 25.625,220.231L25.625,203.712L31.055,203.712Z" style="fill:rgb(11,9,10);fill-rule:nonzero;"/>
        <path d="M49.27,215.705L54.701,215.705L54.701,245.686L49.27,245.686L49.27,215.705ZM49.355,208.918C48.657,208.238 48.308,207.409 48.308,206.429C48.308,205.449 48.657,204.609 49.355,203.911C50.052,203.213 50.929,202.864 51.985,202.864C53.041,202.864 53.917,203.194 54.616,203.855C55.313,204.514 55.662,205.334 55.662,206.315C55.662,207.332 55.313,208.19 54.616,208.889C53.917,209.587 53.041,209.936 51.985,209.936C50.929,209.936 50.052,209.596 49.355,208.918Z" style="fill:rgb(11,9,10);fill-rule:nonzero;"/>
        <path d="M91.328,238.445C92.893,237.616 94.119,236.457 95.005,234.966C95.891,233.477 96.334,231.79 96.334,229.903C96.334,226.999 95.372,224.653 93.45,222.861C91.526,221.07 89.056,220.173 86.039,220.173C82.985,220.173 80.496,221.07 78.572,222.861C76.648,224.653 75.687,226.999 75.687,229.903C75.687,231.79 76.13,233.477 77.016,234.966C77.902,236.457 79.128,237.616 80.694,238.445C82.258,239.276 84.04,239.691 86.039,239.691C87.999,239.691 89.763,239.276 91.328,238.445ZM101.653,215.705L101.653,241.614C101.653,246.855 100.351,250.73 97.748,253.238C95.147,255.746 91.262,256.999 86.096,256.999C83.267,256.999 80.571,256.612 78.007,255.841C75.441,255.066 73.368,253.964 71.784,252.531L74.387,248.345C75.781,249.552 77.507,250.503 79.562,251.201C81.617,251.899 83.738,252.248 85.926,252.248C89.433,252.248 92.026,251.418 93.704,249.759C95.382,248.099 96.221,245.573 96.221,242.18L96.221,239.803C94.938,241.351 93.365,242.509 91.498,243.282C89.631,244.055 87.603,244.441 85.417,244.441C82.551,244.441 79.958,243.83 77.639,242.603C75.319,241.378 73.499,239.662 72.18,237.455C70.859,235.25 70.2,232.732 70.2,229.903C70.2,227.076 70.859,224.558 72.18,222.352C73.499,220.146 75.319,218.44 77.639,217.232C79.958,216.026 82.551,215.423 85.417,215.423C87.68,215.423 89.782,215.837 91.724,216.666C93.666,217.498 95.26,218.722 96.504,220.343L96.504,215.705L101.653,215.705Z" style="fill:rgb(11,9,10);fill-rule:nonzero;"/>
        <path d="M119.923,215.705L125.354,215.705L125.354,245.686L119.923,245.686L119.923,215.705ZM120.008,208.918C119.309,208.238 118.961,207.409 118.961,206.429C118.961,205.449 119.309,204.609 120.008,203.911C120.705,203.213 121.582,202.864 122.638,202.864C123.694,202.864 124.571,203.194 125.269,203.855C125.966,204.514 126.315,205.334 126.315,206.315C126.315,207.332 125.966,208.19 125.269,208.889C124.571,209.587 123.694,209.936 122.638,209.936C121.582,209.936 120.705,209.596 120.008,208.918Z" style="fill:rgb(11,9,10);fill-rule:nonzero;"/>
        <path d="M160.482,243.933C159.69,244.611 158.709,245.131 157.541,245.488C156.371,245.846 155.165,246.026 153.921,246.026C150.903,246.026 148.565,245.216 146.906,243.593C145.246,241.973 144.417,239.653 144.417,236.636L144.417,220.173L139.326,220.173L139.326,215.705L144.417,215.705L144.417,209.144L149.847,209.144L149.847,215.705L158.446,215.705L158.446,220.173L149.847,220.173L149.847,236.408C149.847,238.031 150.253,239.276 151.064,240.143C151.874,241.011 153.033,241.444 154.542,241.444C156.201,241.444 157.616,240.974 158.785,240.029L160.482,243.933Z" style="fill:rgb(11,9,10);fill-rule:nonzero;"/>
        <path d="M190.01,240.454C191.517,239.529 192.613,238.22 193.291,236.522L193.291,232.336L184.919,232.336C180.317,232.336 178.017,233.884 178.017,236.974C178.017,238.483 178.602,239.672 179.771,240.539C180.94,241.407 182.561,241.84 184.636,241.84C186.709,241.84 188.501,241.378 190.01,240.454ZM195.412,218.477C197.618,220.513 198.722,223.549 198.722,227.584L198.722,245.686L193.574,245.686L193.574,241.726C192.669,243.123 191.376,244.188 189.699,244.923C188.02,245.658 186.031,246.026 183.731,246.026C180.374,246.026 177.687,245.216 175.67,243.593C173.652,241.973 172.644,239.842 172.644,237.202C172.644,234.561 173.605,232.441 175.529,230.837C177.452,229.235 180.507,228.434 184.693,228.434L193.291,228.434L193.291,227.358C193.291,225.02 192.613,223.228 191.254,221.984C189.897,220.739 187.898,220.117 185.259,220.117C183.485,220.117 181.751,220.41 180.054,220.994C178.357,221.58 176.924,222.361 175.755,223.342L173.491,219.269C175.038,218.024 176.886,217.073 179.036,216.412C181.185,215.752 183.467,215.423 185.88,215.423C190.028,215.423 193.206,216.441 195.412,218.477Z" style="fill:rgb(11,9,10);fill-rule:nonzero;"/>
        <rect x="216.709" y="203.712" width="5.431" height="41.974" style="fill:rgb(11,9,10);fill-rule:nonzero;"/>
        <path d="M265.075,245.036C262.812,244.376 261.039,243.537 259.758,242.518L262.019,238.22C263.34,239.163 264.943,239.917 266.828,240.482C268.714,241.048 270.619,241.33 272.542,241.33C277.294,241.33 279.67,239.973 279.67,237.258C279.67,236.352 279.349,235.637 278.708,235.109C278.066,234.581 277.265,234.195 276.303,233.948C275.342,233.704 273.975,233.43 272.202,233.128C269.789,232.752 267.819,232.317 266.292,231.826C264.764,231.337 263.453,230.508 262.359,229.337C261.265,228.17 260.719,226.529 260.719,224.417C260.719,221.701 261.85,219.524 264.114,217.883C266.376,216.242 269.412,215.423 273.221,215.423C275.22,215.423 277.218,215.667 279.217,216.157C281.215,216.648 282.856,217.309 284.138,218.138L281.819,222.436C279.367,220.853 276.483,220.061 273.165,220.061C270.864,220.061 269.11,220.438 267.903,221.193C266.696,221.947 266.094,222.946 266.094,224.191C266.094,225.171 266.432,225.945 267.111,226.51C267.79,227.076 268.629,227.491 269.629,227.754C270.627,228.019 272.033,228.32 273.844,228.66C276.256,229.074 278.208,229.518 279.698,229.988C281.187,230.46 282.46,231.262 283.516,232.392C284.572,233.523 285.1,235.109 285.1,237.144C285.1,239.861 283.94,242.019 281.621,243.622C279.302,245.224 276.143,246.026 272.146,246.026C269.695,246.026 267.338,245.695 265.075,245.036Z" style="fill:rgb(11,9,10);fill-rule:nonzero;"/>
        <path d="M317.824,239.944C319.351,239.059 320.549,237.815 321.417,236.211C322.284,234.609 322.718,232.771 322.718,230.697C322.718,228.622 322.284,226.784 321.417,225.18C320.549,223.578 319.351,222.343 317.824,221.475C316.297,220.608 314.572,220.173 312.648,220.173C310.725,220.173 309,220.608 307.472,221.475C305.945,222.343 304.738,223.578 303.852,225.18C302.966,226.784 302.523,228.622 302.523,230.697C302.523,232.771 302.966,234.609 303.852,236.211C304.738,237.815 305.945,239.059 307.472,239.944C309,240.831 310.725,241.274 312.648,241.274C314.572,241.274 316.297,240.831 317.824,239.944ZM304.616,244.045C302.24,242.727 300.382,240.906 299.044,238.586C297.705,236.268 297.036,233.638 297.036,230.697C297.036,227.754 297.705,225.124 299.044,222.805C300.382,220.486 302.24,218.675 304.616,217.373C306.991,216.074 309.669,215.423 312.648,215.423C315.627,215.423 318.296,216.074 320.653,217.373C323.01,218.675 324.858,220.486 326.197,222.805C327.534,225.124 328.205,227.754 328.205,230.697C328.205,233.638 327.534,236.268 326.197,238.586C324.858,240.906 323.01,242.727 320.653,244.045C318.296,245.367 315.627,246.026 312.648,246.026C309.669,246.026 306.991,245.367 304.616,244.045Z" style="fill:rgb(11,9,10);fill-rule:nonzero;"/>
        <rect x="343.647" y="203.712" width="5.431" height="41.974" style="fill:rgb(11,9,10);fill-rule:nonzero;"/>
        <path d="M395.294,215.705L395.294,245.686L390.146,245.686L390.146,241.161C389.052,242.708 387.609,243.904 385.819,244.754C384.027,245.602 382.076,246.026 379.964,246.026C375.967,246.026 372.817,244.923 370.517,242.717C368.217,240.51 367.067,237.258 367.067,232.958L367.067,215.705L372.497,215.705L372.497,232.336C372.497,235.241 373.195,237.438 374.59,238.926C375.985,240.416 377.984,241.161 380.586,241.161C383.452,241.161 385.714,240.294 387.374,238.559C389.033,236.825 389.864,234.373 389.864,231.205L389.864,215.705L395.294,215.705Z" style="fill:rgb(11,9,10);fill-rule:nonzero;"/>
        <path d="M430.421,243.933C429.63,244.611 428.648,245.131 427.48,245.488C426.31,245.846 425.104,246.026 423.86,246.026C420.842,246.026 418.504,245.216 416.845,243.593C415.185,241.973 414.356,239.653 414.356,236.636L414.356,220.173L409.265,220.173L409.265,215.705L414.356,215.705L414.356,209.144L419.786,209.144L419.786,215.705L428.385,215.705L428.385,220.173L419.786,220.173L419.786,236.408C419.786,238.031 420.192,239.276 421.003,240.143C421.813,241.011 422.973,241.444 424.482,241.444C426.141,241.444 427.555,240.974 428.725,240.029L430.421,243.933Z" style="fill:rgb(11,9,10);fill-rule:nonzero;"/>
        <path d="M444.903,215.705L450.334,215.705L450.334,245.686L444.903,245.686L444.903,215.705ZM444.988,208.918C444.29,208.238 443.941,207.409 443.941,206.429C443.941,205.449 444.29,204.609 444.988,203.911C445.685,203.213 446.562,202.864 447.618,202.864C448.674,202.864 449.551,203.194 450.249,203.855C450.946,204.514 451.295,205.334 451.295,206.315C451.295,207.332 450.946,208.19 450.249,208.889C449.551,209.587 448.674,209.936 447.618,209.936C446.562,209.936 445.685,209.596 444.988,208.918Z" style="fill:rgb(11,9,10);fill-rule:nonzero;"/>
        <path d="M486.621,239.944C488.148,239.059 489.345,237.815 490.213,236.211C491.08,234.609 491.514,232.771 491.514,230.697C491.514,228.622 491.08,226.784 490.213,225.18C489.345,223.578 488.148,222.343 486.621,221.475C485.094,220.608 483.368,220.173 481.445,220.173C479.522,220.173 477.796,220.608 476.269,221.475C474.741,222.343 473.534,223.578 472.649,225.18C471.762,226.784 471.319,228.622 471.319,230.697C471.319,232.771 471.762,234.609 472.649,236.211C473.534,237.815 474.741,239.059 476.269,239.944C477.796,240.831 479.522,241.274 481.445,241.274C483.368,241.274 485.094,240.831 486.621,239.944ZM473.412,244.045C471.036,242.727 469.178,240.906 467.841,238.586C466.502,236.268 465.832,233.638 465.832,230.697C465.832,227.754 466.502,225.124 467.841,222.805C469.178,220.486 471.036,218.675 473.412,217.373C475.788,216.074 478.466,215.423 481.445,215.423C484.424,215.423 487.092,216.074 489.449,217.373C491.806,218.675 493.655,220.486 494.993,222.805C496.331,225.124 497.001,227.754 497.001,230.697C497.001,233.638 496.331,236.268 494.993,238.586C493.655,240.906 491.806,242.727 489.449,244.045C487.092,245.367 484.424,246.026 481.445,246.026C478.466,246.026 475.788,245.367 473.412,244.045Z" style="fill:rgb(11,9,10);fill-rule:nonzero;"/>
        <path d="M537.533,218.731C539.776,220.938 540.899,224.173 540.899,228.434L540.899,245.686L535.468,245.686L535.468,229.055C535.468,226.152 534.77,223.964 533.375,222.494C531.979,221.023 529.98,220.287 527.379,220.287C524.437,220.287 522.117,221.145 520.421,222.861C518.724,224.577 517.875,227.039 517.875,230.243L517.875,245.686L512.445,245.686L512.445,215.705L517.649,215.705L517.649,220.231C518.742,218.685 520.222,217.498 522.09,216.666C523.956,215.837 526.078,215.423 528.453,215.423C532.262,215.423 535.289,216.526 537.533,218.731Z" style="fill:rgb(11,9,10);fill-rule:nonzero;"/>
        <path d="M560.414,245.036C558.152,244.376 556.379,243.537 555.097,242.518L557.36,238.22C558.679,239.163 560.282,239.917 562.168,240.482C564.054,241.048 565.958,241.33 567.882,241.33C572.634,241.33 575.01,239.973 575.01,237.258C575.01,236.352 574.688,235.637 574.048,235.109C573.406,234.581 572.605,234.195 571.643,233.948C570.681,233.704 569.315,233.43 567.542,233.128C565.128,232.752 563.159,232.317 561.631,231.826C560.104,231.337 558.793,230.508 557.699,229.337C556.605,228.17 556.058,226.529 556.058,224.417C556.058,221.701 557.19,219.524 559.453,217.883C561.715,216.242 564.751,215.423 568.56,215.423C570.559,215.423 572.557,215.667 574.556,216.157C576.555,216.648 578.196,217.309 579.478,218.138L577.159,222.436C574.707,220.853 571.822,220.061 568.504,220.061C566.203,220.061 564.45,220.438 563.242,221.193C562.035,221.947 561.433,222.946 561.433,224.191C561.433,225.171 561.772,225.945 562.451,226.51C563.13,227.076 563.969,227.491 564.969,227.754C565.967,228.019 567.373,228.32 569.183,228.66C571.596,229.074 573.548,229.518 575.037,229.988C576.527,230.46 577.799,231.262 578.856,232.392C579.911,233.523 580.439,235.109 580.439,237.144C580.439,239.861 579.28,242.019 576.961,243.622C574.641,245.224 571.482,246.026 567.486,246.026C565.034,246.026 562.678,245.695 560.414,245.036Z" style="fill:rgb(11,9,10);fill-rule:nonzero;"/>
        <path d="M31.242,125.356C29.52,124.248 28.143,122.863 27.11,121.201C26.077,119.539 25.389,117.772 25.045,115.902C24.701,114.032 24.787,112.335 25.303,110.811L37.955,79.851C38.472,78.327 39.676,76.63 41.57,74.76C43.463,72.89 45.658,71.123 48.154,69.461C50.65,67.799 53.231,66.414 55.899,65.306C58.568,64.197 60.934,63.643 63,63.643L111.8,63.643L101.472,89.409L75.652,89.409C72.209,89.409 69.714,89.929 68.164,90.968C66.615,92.007 65.496,93.426 64.808,95.227C63.775,97.582 63.646,99.141 64.42,99.903C65.195,100.664 66.787,101.045 69.197,101.045L78.234,101.045C80.299,101.045 82.193,101.599 83.914,102.707C85.636,103.816 87.056,105.166 88.175,106.759C89.293,108.352 90.068,110.084 90.499,111.954C90.929,113.824 90.886,115.452 90.369,116.837L73.328,159.227C72.639,160.889 71.349,162.586 69.455,164.317C67.562,166.049 65.453,167.607 63.129,168.993C60.806,170.378 58.395,171.52 55.899,172.421C53.404,173.322 51.209,173.772 49.316,173.772L0,173.772L10.585,147.798L41.053,147.798C43.463,147.382 45.184,146.205 46.217,144.266L50.09,134.499C51.123,132.144 51.338,130.31 50.736,128.993C50.133,127.677 49.143,127.019 47.766,127.019L37.438,127.019C35.029,127.019 32.963,126.465 31.242,125.356Z" style="fill:rgb(11,9,10);fill-rule:nonzero;"/>
        <path d="M198.813,63.643L188.485,89.617L153.369,89.617L131.165,144.266C130.647,146.205 131.509,147.382 133.746,147.798L154.919,147.798L144.333,173.772L104.312,173.772C102.246,173.772 100.353,173.322 98.631,172.421C96.91,171.52 95.447,170.378 94.242,168.993C93.037,167.607 92.219,166.049 91.789,164.317C91.358,162.586 91.488,160.889 92.176,159.227L145.882,26.241L178.932,26.241L163.698,63.643L198.813,63.643Z" style="fill:rgb(11,9,10);fill-rule:nonzero;"/>
        <path d="M236.252,63.643L275.756,63.643L265.17,89.825L243.223,89.825C241.158,90.933 240.039,91.695 239.866,92.11L236.252,101.045L260.781,101.045L250.194,127.019L225.665,127.019L218.178,145.512C218.178,146.759 219.124,147.521 221.018,147.798L241.932,147.798L231.346,173.772L191.583,173.772C189.517,173.772 187.624,173.322 185.903,172.421C184.181,171.52 182.718,170.378 181.513,168.993C180.309,167.607 179.491,166.049 179.06,164.317C178.63,162.586 178.76,160.889 179.448,159.227L211.981,78.188C212.669,76.388 213.917,74.621 215.725,72.89C217.533,71.159 219.555,69.6 221.793,68.214C224.03,66.829 226.44,65.721 229.022,64.89C231.604,64.059 234.014,63.643 236.252,63.643Z" style="fill:rgb(11,9,10);fill-rule:nonzero;"/>
        <path d="M294.866,63.643L327.915,63.643L283.505,173.772L250.455,173.772L294.866,63.643Z" style="fill:rgb(11,9,10);fill-rule:nonzero;"/>
        <path d="M332.563,52.214L299.513,52.214L310.099,26.241L343.149,26.241L332.563,52.214Z" style="fill:rgb(11,9,10);fill-rule:nonzero;"/>
        <path d="M376.199,26.241L343.149,26.241L353.736,0.268L386.785,0.268L376.199,26.241Z" style="fill:rgb(186,24,27);fill-rule:nonzero;"/>
        <path d="M382.394,91.487C382.738,90.794 382.222,90.275 380.845,89.929C379.468,89.582 378.005,89.409 376.455,89.409L369.742,89.409L335.66,173.772L302.611,173.772L347.021,63.643L408.214,63.643C410.452,63.643 412.517,64.094 414.411,64.994C416.304,65.894 417.811,67.037 418.929,68.422C420.048,69.808 420.78,71.366 421.124,73.098C421.469,74.83 421.296,76.526 420.607,78.188L382.136,173.772L349.087,173.772L382.394,91.487Z" style="fill:rgb(11,9,10);fill-rule:nonzero;"/>
        <path d="M463.989,63.643L503.493,63.643L492.907,89.825L470.96,89.825C468.894,90.933 467.776,91.695 467.604,92.11L463.989,101.045L488.517,101.045L477.931,127.019L453.402,127.019L445.915,145.512C445.915,146.759 446.861,147.521 448.755,147.798L469.669,147.798L459.083,173.772L419.32,173.772C417.254,173.772 415.361,173.322 413.639,172.421C411.918,171.52 410.455,170.378 409.25,168.993C408.046,167.607 407.228,166.049 406.798,164.317C406.367,162.586 406.496,160.889 407.184,159.227L439.718,78.188C440.407,76.388 441.655,74.621 443.462,72.89C445.269,71.159 447.292,69.6 449.53,68.214C451.767,66.829 454.177,65.721 456.759,64.89C459.341,64.059 461.751,63.643 463.989,63.643Z" style="fill:rgb(11,9,10);fill-rule:nonzero;"/>
        <path d="M540.935,63.643L580.439,63.643L569.853,89.825L547.907,89.825C545.841,90.933 544.722,91.695 544.55,92.11L511.5,173.772L478.192,173.772L516.664,78.188C517.352,76.388 518.599,74.621 520.408,72.89C522.216,71.159 524.237,69.6 526.476,68.214C528.713,66.829 531.123,65.721 533.705,64.89C536.287,64.059 538.697,63.643 540.935,63.643Z" style="fill:rgb(11,9,10);fill-rule:nonzero;"/>
    </g>
</svg>
