<?xml version="1.0" encoding="UTF-8" standalone="no"?>
<!DOCTYPE svg PUBLIC "-//W3C//DTD SVG 1.1//EN" "http://www.w3.org/Graphics/SVG/1.1/DTD/svg11.dtd">
<svg width="100%" height="100%" viewBox="0 0 135 70" version="1.1" xmlns="http://www.w3.org/2000/svg" xmlns:xlink="http://www.w3.org/1999/xlink" xml:space="preserve" xmlns:serif="http://www.serif.com/" style="fill-rule:evenodd;clip-rule:evenodd;stroke-linejoin:round;stroke-miterlimit:2;">
    <g transform="matrix(0.870616,0,0,0.870616,-172.112,-128.462)">
        <g id="Layer-1" serif:id="Layer 1">
            <g>
                <g transform="matrix(0.208103,-0.978107,-0.978107,-0.208103,226.608,184.971)">
                    <path d="M-13.054,22.29L26.22,22.29L27.532,16.124L-11.742,16.124L-13.054,22.29Z" style="fill-rule:nonzero;"/>
                </g>
                <g transform="matrix(1,0,0,1,224.003,203.592)">
                    <path d="M0,-38.482C0.272,-33.217 -0.219,-19.513 -0.32,-16.72L-0.267,-16.72C1.222,-20.761 5.437,-30.649 8.928,-38.482L15.252,-38.482L1.365,-8.891C-2.728,-0.123 -5.486,0 -9.652,0C-10.409,0 -11.783,-0.162 -12.638,-0.366L-11.484,-5.63C-10.97,-5.522 -10.051,-5.407 -9.403,-5.407C-7.382,-5.407 -6.097,-6.095 -4.895,-9.007L-6.365,-38.482L0,-38.482Z" style="fill-rule:nonzero;"/>
                </g>
                <g transform="matrix(1,0,0,1,240.578,183.959)">
                    <path d="M0,-10.141C1.237,-15.894 1.567,-17.718 1.771,-18.849L7.927,-18.849C7.866,-18.222 7.637,-16.825 7.455,-15.889C8.808,-17.893 10.862,-19.282 14.057,-19.282C18.423,-19.282 20.927,-16.392 19.575,-9.963L15.479,9.141L9.221,9.141L13.169,-9.496C13.796,-12.409 13.223,-14.025 10.803,-14.025C8.324,-14.025 6.823,-12.554 5.894,-8.153L2.214,9.141L-4.098,9.141L0,-10.141Z" style="fill-rule:nonzero;"/>
                </g>
                <g transform="matrix(1,0,0,1,278.939,168.965)">
                    <path d="M0,10.27C1.302,4.221 0.902,0.957 -2.229,0.957C-5.828,0.957 -7.125,4.498 -8.34,10.407C-9.724,17.14 -8.901,19.371 -6.018,19.371C-3.156,19.371 -1.289,16.302 0,10.27M-9.196,-14.298L-2.897,-14.298L-5.714,-1.13C-4.436,-2.873 -2.456,-4.288 0.576,-4.288C6.114,-4.288 8.381,0.662 6.251,10.296C4.317,19.062 0.862,24.568 -5.091,24.568C-8.658,24.568 -10.003,22.576 -10.477,21.264C-10.707,22.295 -11.044,23.502 -11.267,24.136L-17.416,24.136C-16.997,22.254 -16.326,19.091 -15.705,16.264L-9.196,-14.298Z" style="fill-rule:nonzero;"/>
                </g>
                <g transform="matrix(1,0,0,1,296.41,203.592)">
                    <path d="M0,-38.482C0.272,-33.217 -0.219,-19.513 -0.32,-16.72L-0.267,-16.72C1.222,-20.761 5.437,-30.649 8.928,-38.482L15.252,-38.482L1.365,-8.891C-2.728,-0.123 -5.486,0 -9.652,0C-10.409,0 -11.783,-0.162 -12.638,-0.366L-11.484,-5.63C-10.97,-5.522 -10.051,-5.407 -9.403,-5.407C-7.382,-5.407 -6.097,-6.095 -4.895,-9.007L-6.365,-38.482L0,-38.482Z" style="fill-rule:nonzero;"/>
                </g>
                <g transform="matrix(-0.214721,0.976675,0.976675,0.214721,324.357,158.609)">
                    <path d="M0.506,-5.697L5.923,-5.697L4.581,0.407L-0.836,0.407L0.506,-5.697Z" style="fill-rule:nonzero;"/>
                </g>
                <g transform="matrix(-0.214682,0.976684,0.976684,0.214682,331.77,153.319)">
                    <path d="M0.506,-5.698L5.923,-5.698L4.581,0.407L-0.836,0.407L0.506,-5.698Z" style="fill-rule:nonzero;"/>
                </g>
                <g transform="matrix(1,0,0,1,322.251,188.43)">
                    <path d="M0,-18.27L4.16,-18.27L5.21,-23.32L-8.7,-23.32L-9.8,-18.27L-6.25,-18.27L-9.95,-1.7C-11,3.339 -9.01,5.05 -4.61,5.05C-3.58,5.05 -1.75,5.03 -0.49,4.62L0.42,0.06C-0.12,0.169 -0.971,0.24 -1.681,0.24C-3.7,0.24 -3.83,-0.76 -3.48,-2.411L0,-18.27Z" style="fill-rule:nonzero;"/>
                </g>
                <g transform="matrix(1,0,0,1,341.69,182.119)">
                    <path d="M0,-6.021C0.187,-6.923 0.369,-7.844 0.369,-8.672C0.369,-10.783 -0.271,-12.347 -2.589,-12.347C-5.341,-12.347 -6.971,-9.258 -7.799,-6.021L0,-6.021ZM-8.803,-1.456C-9.045,-0.191 -9.173,1 -9.173,2.011C-9.173,4.666 -8.31,6.318 -6.208,6.318C-3.769,6.318 -2.777,4.712 -2.122,3.049L3.985,3.049C2.896,6.707 -0.186,11.421 -6.771,11.421C-15.601,11.421 -15.978,3.474 -14.667,-3.33C-13.278,-10.237 -9.506,-17.442 -1.932,-17.442C6.453,-17.442 7.423,-10.125 5.692,-3.504L5.158,-1.456L-8.803,-1.456Z" style="fill-rule:nonzero;"/>
                </g>
                <g transform="matrix(1,0,0,1,202.583,211.966)">
                    <path d="M0,2.828C0,4.784 1.3,5.784 2.886,5.784C4.542,5.784 5.771,4.57 5.771,2.813C5.771,1.057 4.514,-0.143 2.886,-0.143C1.3,-0.143 0,0.843 0,2.828M6.471,-3.642L6.471,6.355L5.785,6.355L5.785,4.799C5.199,5.87 4.042,6.47 2.843,6.47C0.872,6.47 -0.686,5.17 -0.686,2.828C-0.686,0.5 0.886,-0.815 2.857,-0.815C4.071,-0.815 5.214,-0.3 5.785,0.843L5.785,-3.642L6.471,-3.642Z" style="fill-rule:nonzero;"/>
                </g>
                <g transform="matrix(1,0,0,1,0,56.545)">
                    <path d="M213.921,161.776L214.621,161.776L214.621,154.692L213.921,154.692L213.921,161.776ZM214.85,152.422C214.85,153.164 213.722,153.164 213.722,152.422C213.722,151.679 214.85,151.679 214.85,152.422" style="fill-rule:nonzero;"/>
                </g>
                <g transform="matrix(1,0,0,1,219.847,219.321)">
                    <path d="M0,-4.742C0,-3.285 0.999,-2.028 2.613,-2.028C4.07,-2.028 5.256,-3.285 5.256,-4.742C5.256,-6.527 4.07,-7.484 2.613,-7.484C1.171,-7.484 0,-6.584 0,-4.742M5.299,-8.341L5.756,-7.941L5.07,-7.141C5.569,-6.598 5.941,-5.885 5.941,-4.742C5.941,-3.513 5.213,-2.271 4.041,-1.743C5.284,-1.3 5.97,-0.429 5.97,0.785C5.97,2.685 4.484,3.599 2.613,3.599C0.742,3.599 -0.729,2.57 -0.729,0.785L-0.029,0.785C-0.029,2.228 1.199,2.913 2.613,2.913C4.027,2.913 5.284,2.285 5.284,0.785C5.284,-0.728 3.928,-1.328 2.613,-1.328C0.571,-1.328 -0.7,-2.856 -0.7,-4.742C-0.7,-6.941 0.785,-8.183 2.613,-8.183C3.327,-8.183 4.07,-7.927 4.613,-7.541L5.299,-8.341Z" style="fill-rule:nonzero;"/>
                </g>
                <g transform="matrix(1,0,0,1,0,56.545)">
                    <path d="M230.084,161.776L230.784,161.776L230.784,154.692L230.084,154.692L230.084,161.776ZM231.013,152.422C231.013,153.164 229.885,153.164 229.885,152.422C229.885,151.679 231.013,151.679 231.013,152.422" style="fill-rule:nonzero;"/>
                </g>
                <g transform="matrix(1,0,0,1,237.253,218.421)">
                    <path d="M0,-9.283L0,-7.155L2.399,-7.155L2.399,-6.569L0,-6.569L0,-2.27C0,-1.313 0.2,-0.642 1.3,-0.642C1.643,-0.642 2.028,-0.757 2.385,-0.928L2.628,-0.356C2.186,-0.142 1.742,0 1.3,0C-0.2,0 -0.686,-0.885 -0.686,-2.27L-0.686,-6.569L-2.186,-6.569L-2.186,-7.155L-0.686,-7.155L-0.686,-9.212L0,-9.283Z" style="fill-rule:nonzero;"/>
                </g>
                <g transform="matrix(1,0,0,1,244.435,214.822)">
                    <path d="M0,-0.028C0,1.743 1.285,2.928 2.885,2.928C6.812,2.928 6.812,-2.97 2.885,-2.97C1.285,-2.97 0,-1.799 0,-0.028M6.47,-3.556L6.47,3.499L5.771,3.499L5.771,1.999C5.085,3.1 4.027,3.614 2.885,3.614C0.914,3.614 -0.699,2.128 -0.699,-0.028C-0.699,-2.185 0.914,-3.642 2.885,-3.642C4.027,-3.642 5.185,-3.113 5.771,-2.013L5.771,-3.556L6.47,-3.556Z" style="fill-rule:nonzero;"/>
                </g>
                <g transform="matrix(-1,0,0,1,512.016,56.645)">
                    <rect x="255.658" y="151.679" width="0.7" height="9.997"/>
                </g>
                <g transform="matrix(1,0,0,1,272.793,217.023)">
                    <path d="M0,-4.472C-0.714,-5.1 -1.414,-5.214 -2.199,-5.214C-3.299,-5.229 -4.355,-4.814 -4.327,-3.914C-4.299,-2.972 -3.07,-2.786 -2.185,-2.629C-0.928,-2.415 0.8,-2.201 0.729,-0.558C0.686,0.999 -0.928,1.413 -2.171,1.413C-3.413,1.413 -4.642,0.941 -5.256,-0.001L-4.741,-0.458C-4.156,0.384 -3.099,0.742 -2.156,0.742C-1.3,0.742 0,0.513 0.043,-0.601C0.071,-1.615 -1.1,-1.815 -2.257,-2C-3.628,-2.229 -4.984,-2.487 -4.999,-3.9C-5.013,-5.285 -3.628,-5.885 -2.199,-5.871C-1.171,-5.871 -0.271,-5.585 0.429,-4.929L0,-4.472Z" style="fill-rule:nonzero;"/>
                </g>
                <g transform="matrix(1,0,0,1,284.09,214.751)">
                    <path d="M0,0.057C0,-1.771 -1.3,-2.957 -2.899,-2.957C-4.499,-2.957 -5.799,-1.771 -5.799,0.057C-5.799,1.885 -4.499,2.985 -2.899,2.985C-1.3,2.985 0,1.885 0,0.057M-6.484,0.057C-6.484,-2.185 -4.885,-3.613 -2.899,-3.613C-0.914,-3.613 0.686,-2.185 0.686,0.057C0.686,2.299 -0.914,3.67 -2.899,3.67C-4.885,3.67 -6.484,2.299 -6.484,0.057" style="fill-rule:nonzero;"/>
                </g>
                <g transform="matrix(-1,0,0,1,579.184,56.645)">
                    <rect x="289.242" y="151.679" width="0.7" height="9.997"/>
                </g>
                <g transform="matrix(1,0,0,1,300.438,211.366)">
                    <path d="M0,6.955L0,5.684C-0.543,6.655 -1.528,7.055 -2.514,7.069C-4.398,7.069 -5.698,5.912 -5.698,3.956L-5.698,-0.114L-4.999,-0.114L-4.999,3.941C-4.999,5.541 -4.013,6.398 -2.485,6.384C-1.028,6.369 -0.015,5.269 -0.015,3.813L-0.015,-0.114L0.686,-0.114L0.686,6.955L0,6.955Z" style="fill-rule:nonzero;"/>
                </g>
                <g transform="matrix(1,0,0,1,307.435,218.421)">
                    <path d="M0,-9.283L0,-7.155L2.399,-7.155L2.399,-6.569L0,-6.569L0,-2.27C0,-1.313 0.2,-0.642 1.3,-0.642C1.643,-0.642 2.028,-0.757 2.385,-0.928L2.628,-0.356C2.186,-0.142 1.742,0 1.3,0C-0.2,0 -0.686,-0.885 -0.686,-2.27L-0.686,-6.569L-2.186,-6.569L-2.186,-7.155L-0.686,-7.155L-0.686,-9.212L0,-9.283Z" style="fill-rule:nonzero;"/>
                </g>
                <g transform="matrix(1,0,0,1,0,56.545)">
                    <path d="M314.302,161.776L315.002,161.776L315.002,154.692L314.302,154.692L314.302,161.776ZM315.23,152.422C315.23,153.164 314.103,153.164 314.103,152.422C314.103,151.679 315.23,151.679 315.23,152.422" style="fill-rule:nonzero;"/>
                </g>
                <g transform="matrix(1,0,0,1,326.169,214.751)">
                    <path d="M0,0.057C0,-1.771 -1.3,-2.957 -2.899,-2.957C-4.499,-2.957 -5.799,-1.771 -5.799,0.057C-5.799,1.885 -4.499,2.985 -2.899,2.985C-1.3,2.985 0,1.885 0,0.057M-6.484,0.057C-6.484,-2.185 -4.885,-3.613 -2.899,-3.613C-0.914,-3.613 0.686,-2.185 0.686,0.057C0.686,2.299 -0.914,3.67 -2.899,3.67C-4.885,3.67 -6.484,2.299 -6.484,0.057" style="fill-rule:nonzero;"/>
                </g>
                <g transform="matrix(1,0,0,1,332.008,218.194)">
                    <path d="M0,-6.928L0,-5.671C0.543,-6.642 1.528,-7.042 2.514,-7.056C4.399,-7.056 5.699,-5.9 5.699,-3.943L5.699,0.128L4.999,0.128L4.999,-3.928C4.999,-5.528 4.014,-6.385 2.485,-6.37C1.028,-6.357 0.015,-5.257 0.015,-3.8L0.015,0.128L-0.686,0.128L-0.686,-6.928L0,-6.928Z" style="fill-rule:nonzero;"/>
                </g>
                <g transform="matrix(1,0,0,1,347.229,217.023)">
                    <path d="M0,-4.472C-0.714,-5.1 -1.414,-5.214 -2.199,-5.214C-3.299,-5.229 -4.355,-4.814 -4.327,-3.914C-4.299,-2.972 -3.07,-2.786 -2.185,-2.629C-0.928,-2.415 0.8,-2.201 0.729,-0.558C0.686,0.999 -0.928,1.413 -2.171,1.413C-3.413,1.413 -4.642,0.941 -5.256,-0.001L-4.741,-0.458C-4.156,0.384 -3.099,0.742 -2.156,0.742C-1.3,0.742 0,0.513 0.043,-0.601C0.071,-1.615 -1.1,-1.815 -2.257,-2C-3.628,-2.229 -4.984,-2.487 -4.999,-3.9C-5.013,-5.285 -3.628,-5.885 -2.199,-5.871C-1.171,-5.871 -0.271,-5.585 0.429,-4.929L0,-4.472Z" style="fill-rule:nonzero;"/>
                </g>
            </g>
        </g>
    </g>
</svg>
